# Blender v3.3.1 OBJ File: 'Reference Cube.blend'
# www.blender.org
v 1.000000 1.000000 1.000000
v 1.000000 1.000000 -1.000000
v 1.000000 -1.000000 1.000000
v 1.000000 -1.000000 -1.000000
v -1.000000 1.000000 1.000000
v -1.000000 1.000000 -1.000000
v -1.000000 -1.000000 1.000000
v -1.000000 -1.000000 -1.000000
vt 0.700286 0.867422
vt 0.966381 0.601327
vt 0.966381 0.867422
vt 0.645141 0.379516
vt 0.354859 0.089234
vt 0.645141 0.089234
vt 0.300487 0.365591
vt 0.022430 0.087534
vt 0.300487 0.087534
vt 0.979855 0.074833
vt 0.676395 0.378292
vt 0.676395 0.074833
vt 0.311373 0.866060
vt 0.032377 0.587064
vt 0.311373 0.587064
vt 0.656641 0.875391
vt 0.343359 0.562109
vt 0.656641 0.562109
vt 0.700286 0.601327
vt 0.354859 0.379516
vt 0.022430 0.365591
vt 0.979855 0.378292
vt 0.032377 0.866060
vt 0.343359 0.875391
vn 0.0000 0.0000 1.0000
vn 0.0000 -1.0000 0.0000
vn -1.0000 0.0000 0.0000
vn 0.0000 0.0000 -1.0000
vn 1.0000 0.0000 0.0000
vn 0.0000 1.0000 0.0000
s off
f 5/1/1 3/2/1 1/3/1
f 3/4/2 8/5/2 4/6/2
f 7/7/3 6/8/3 8/9/3
f 2/10/4 8/11/4 6/12/4
f 1/13/5 4/14/5 2/15/5
f 5/16/6 2/17/6 6/18/6
f 5/1/1 7/19/1 3/2/1
f 3/4/2 7/20/2 8/5/2
f 7/7/3 5/21/3 6/8/3
f 2/10/4 4/22/4 8/11/4
f 1/13/5 3/23/5 4/14/5
f 5/16/6 1/24/6 2/17/6
